<svg width="32px" height="44px" id="Layer_1" data-name="Layer 1" xmlns="http://www.w3.org/2000/svg" viewBox="0 0 32 44"><defs><style>.cls-1{fill:#894d1a;}.cls-2{fill:#fff;}</style></defs><title>coffee_shop</title><path class="cls-1" d="M16.05,0A16.06,16.06,0,0,0,0,15.92C0,26.83,14.34,42.85,14.94,43.55a1.46,1.46,0,0,0,2.11,0c.6-.7,15-16.72,15-27.63A15.79,15.79,0,0,0,16.05,0Zm0,24a8.13,8.13,0,0,1-8.13-8,8.13,8.13,0,0,1,16.25,0A8,8,0,0,1,16.05,24Z"/><ellipse class="cls-2" cx="16.05" cy="15.82" rx="12.04" ry="12.01"/><path class="cls-1" d="M23.77,20.52H19.16a6.44,6.44,0,0,0,3-5.4V13H10.23v2.21a6.55,6.55,0,0,0,3,5.4H8.63a.6.6,0,1,0,0,1.2h2.3a1.41,1.41,0,0,0,1.41,1h7.92a1.41,1.41,0,0,0,1.4-1H24a.65.65,0,0,0,.6-.6C24.57,20.92,24.07,20.52,23.77,20.52Z"/><path class="cls-1" d="M14.64,11.31l-.2-.2a.37.37,0,0,1-.1-.3c0-.1.1-.2.2-.3a2.4,2.4,0,0,0,.61-1.1,1.62,1.62,0,0,0-.51-1.1.43.43,0,0,0-.7.1c-.2.3-.2.5.1.7a.37.37,0,0,1,.1.3c0,.1,0,.2-.2.3a1.74,1.74,0,0,0-.6,1.1,1.61,1.61,0,0,0,.5,1.1l.2.2a.37.37,0,0,0,.3.1.76.76,0,0,0,.4-.2A.62.62,0,0,0,14.64,11.31Z"/><path class="cls-1" d="M16.85,11.61l-.3-.2a.76.76,0,0,1-.2-.4.52.52,0,0,1,.2-.4,1.5,1.5,0,0,0,0-2.4.43.43,0,0,0-.7.1A.43.43,0,0,0,16,9a.76.76,0,0,1,.2.4.52.52,0,0,1-.2.4,1.5,1.5,0,0,0,0,2.4l.1.1.2.1a.37.37,0,0,0,.3.1.76.76,0,0,0,.4-.2v-.1C17.05,12,17.05,11.71,16.85,11.61Z"/><path class="cls-1" d="M18.86,11.31l-.2-.2a.37.37,0,0,1-.1-.3c0-.1.1-.2.2-.3a2.38,2.38,0,0,0,.6-1.1,1.61,1.61,0,0,0-.5-1.1.44.44,0,0,0-.71.1.43.43,0,0,0,.1.7.35.35,0,0,1,.11.3c0,.1,0,.2-.21.3a1.74,1.74,0,0,0-.6,1.1,1.61,1.61,0,0,0,.5,1.1l.2.2a.4.4,0,0,0,.31.1A.76.76,0,0,0,19,12,.62.62,0,0,0,18.86,11.31Z"/></svg>