<svg version="1.1" id="Layer_1" xmlns="http://www.w3.org/2000/svg" xmlns:xlink="http://www.w3.org/1999/xlink" x="0px" y="0px" width="32px" height="44px" viewBox="0 0 32 44" style="enable-background:new 0 0 32 44;" xml:space="preserve">
<style type="text/css">.st0{fill:#B76720;}.st1{fill:#FFFFFF;}</style>
<title>hiking</title>
<path class="st0" d="M16,0C7.2,0,0.1,7.1,0,15.9c0,10.9,14.3,26.9,14.9,27.6c0.6,0.6,1.5,0.6,2.1,0c0,0,0,0,0,0 c0.6-0.7,15-16.7,15-27.6C32.1,7.2,25.1,0.1,16.4,0C16.3,0,16.2,0,16,0z M16,24c-4.4,0-8.1-3.6-8.1-8c-0.1-4.5,3.5-8.2,8-8.3 s8.2,3.5,8.3,8c0.1,4.5-3.5,8.2-8,8.3C16.1,24,16.1,24,16,24z"/>
<ellipse class="st1" cx="16" cy="15.8" rx="12" ry="12"/>
<path class="st0" d="M22.5,13.2c-0.1-0.3-0.4-0.6-0.7-0.7l0,0l0-2.7c0,0,0,0,0,0c0-0.2-0.2-0.4-0.4-0.4h0h0c0,0,0,0,0,0 c-0.2,0-0.4,0.2-0.4,0.4v0l0,2.7l-2,0.7c-0.1,0-0.1,0-0.2,0c-0.1,0-0.3-0.1-0.4-0.1l0,0c0,0-1.7-1.8-2.2-2.4c-0.6-0.7-1-0.7-2.1-0.7 c-1.7,0-3.3,1.1-3.7,2.7l-0.8,2.6c0,0.1,0,0.2,0,0.3c0,0.3,0.1,0.5,0.2,0.7l0,0c0.2,0.3,0.6,0.5,0.9,0.5c0,0,0,0,0,0h1.3 c0,0.5,0.2,0.9,0.4,1.2l0,0L12,21.1l-1.6,2.2c-0.2,0.2-0.3,0.4-0.3,0.7c0,0.6,0.5,1.1,1.1,1.1c0.3,0,0.6-0.1,0.8-0.4l0,0l2.1-2.8 l0.9-2.2c0.8,0.6,1.6,1.1,1.8,1.3c0.3,0.6,0.5,1.7,0.7,2.6c0.1,0.4,0.1,0.8,0.2,1.1c0.1,0.4,0.5,0.7,1,0.7c0.9,0,1.1-0.7,1.1-1.5 c0-0.1-0.1-3.6-0.6-4.2c-0.1-0.1-3.1-3-3.4-3.3c0.1-0.3,0.2-0.9,0.3-1.5l0.1-0.6l1.2,1c0.3,0.2,0.6,0.4,1,0.4c0.2,0,0.4,0,0.5-0.1 l0,0l2-0.7l-0.2,10c0,0,0,0,0,0c0,0.2,0.2,0.4,0.4,0.4c0,0,0,0,0,0h0h0c0,0,0,0,0,0c0.2,0,0.4-0.2,0.4-0.4v0l0.2-10.3 C21.8,14.6,22.9,14.3,22.5,13.2L22.5,13.2z"/>
<path class="st0" d="M15.8,9.6C15.8,9.6,15.8,9.6,15.8,9.6c-1.1,0-2.1-0.9-2.1-2.1s0.9-2.1,2.1-2.1c1.1,0,2,0.9,2.1,2v0 c0,0,0,0.1,0,0.1C17.8,8.7,16.9,9.6,15.8,9.6L15.8,9.6L15.8,9.6z"/>
<path class="st0" d="M15.7,6.3c-0.7,0-1.2,0.6-1.2,1.3c0,0.7,0.6,1.3,1.3,1.3S17,8.3,17,7.6c0,0,0,0,0-0.1v0 C17,6.8,16.5,6.3,15.7,6.3C15.8,6.3,15.7,6.3,15.7,6.3L15.7,6.3L15.7,6.3z"/>
</svg>