<svg version="1.1" id="Layer_1" xmlns="http://www.w3.org/2000/svg" xmlns:xlink="http://www.w3.org/1999/xlink" x="0px" y="0px" width="32px" height="44px" viewBox="0 0 32 44" style="enable-background:new 0 0 32 44;" xml:space="preserve">
<style type="text/css">.st0{fill:#FF0066;}.st1{fill:#FFFFFF;}.st2{fill:none;}</style>
<path class="st0" d="M15.9,0C7.1,0,0,7.2,0,16C0,26.9,14.4,42.8,15,43.5c0.6,0.6,1.5,0.6,2.1,0l0,0C17.7,42.8,32,26.7,32,15.8C32,7.1,25,0.1,16.3,0C16.2,0,16.1,0,15.9,0z M16,24c-4.4,0-8.1-3.6-8.1-8c-0.1-4.5,3.5-8.2,8-8.3c4.5-0.1,8.2,3.5,8.3,8c0.1,4.5-3.5,8.2-8,8.3C16.1,24,16.1,24,16,24z"/>
<ellipse class="st1" cx="16" cy="15.8" rx="12" ry="12"/>
<path class="st2" d="M11.2,13.4c-0.6-0.2-1.2-0.2-1.9-0.1c-1.7,0.4-2.8,2.1-2.4,3.9c0.4,1.7,2.1,2.8,3.9,2.4c1.5-0.3,2.4-1.6,2.4-3l-3.5,0L11.2,13.4z"/>
<path class="st2" d="M11.3,15.6c-0.1-0.1,1.7,0,1.7,0l0.2-0.3c-0.2-0.7-0.6-1.2-1-1.6L11.3,15.6z"/>
<path class="st2" d="M12.6,12.9c0.6,0.5,1,0.9,1.4,1.7l1.3-1.3l-1.8-2.1L12.6,12.9z"/>
<path class="st2" d="M21.4,13.1l1.1,2.7c-0.4,0.1-0.8,0.2-1.1,0.4l-1.1-2.7c-1.2,0.7-1.9,2.1-1.4,3.5c0.4,1.7,2.1,2.8,3.9,2.4c1.7-0.4,2.8-2.1,2.4-3.9C24.6,13.8,23,12.8,21.4,13.1z"/>
<path id="icon_15_" class="st0" d="M24.4,16.4c-0.2,0-0.5,0.1-0.7,0.1c-0.3,0-0.4-0.1-0.5-0.4c0-0.2-0.1-0.5-0.1-0.7c-0.1-0.4-0.2-0.5-0.6-0.4c-0.2,0-0.4,0.1-0.6,0.1c-0.4,0-0.5-0.1-0.6-0.4c0-0.1,0-0.2,0-0.3c-0.1-0.6-0.2-0.7-0.8-0.6c-0.1,0-0.3,0-0.4-0.1s-0.1-0.2,0-0.4c0.1-0.2,0.1-0.4-0.1-0.6c-0.2-0.1-0.3-0.2-0.5-0.4c-0.1-0.1-0.1-0.1-0.1-0.3c0-0.6,0-1.2-0.2-1.7c-0.6-1.5-2.1-2.7-3.7-2.7c-1.5,0-2.7,0.6-3.6,1.8c0,0.1-0.1,0.1-0.2,0.1c-0.4,0.1-0.8,0.1-1.1,0.2c-1.8,0.4-2.9,2.2-2.6,4.1c0.1,0.9,0.5,1.7,1,2.5c0.2,0.3,0.5,0.6,0.7,1l-0.4,0.3c-0.2,0.1-0.3,0.3-0.3,0.4c-0.1,0.2-0.1,0.4,0.1,0.6l0.5,0.9l2.4,4.5c0.1,0.2,0.3,0.4,0.6,0.4c0.2,0,0.4,0,0.5-0.1l3-1.8c0.2-0.1,0.3-0.2,0.3-0.4c0.1-0.2,0.1-0.5-0.1-0.7l-2.2-3.1l-1.4-1.9c-0.2-0.2-0.4-0.4-0.7-0.3c-0.1,0-0.3,0-0.4,0.1l-0.8,0.5c-0.1-0.1-0.1-0.1-0.2-0.2c-0.6-0.7-1-1.4-1.3-2.3c-0.3-1-0.1-1.9,0.7-2.7c0.4-0.4,0.9-0.6,1.4-0.6c0,0.1,0,0.1,0,0.2c0,0.4-0.1,0.9,0,1.3c0.2,1.3,0.8,2.3,1.9,3c1.1,0.7,2.4,0.9,3.6,0.4c0.1,0,0.2,0,0.3,0c1.6,1.2,3.3,2.5,5,3.7c0.2,0.2,0.5,0.2,0.7,0.1c0.5-0.2,1-0.4,1.6-0.5c0.3-0.1,0.5-0.3,0.5-0.7c0-0.5,0-1.1,0-1.6C24.9,16.6,24.7,16.4,24.4,16.4L24.4,16.4z M11.3,18.5c0.2-0.2,0.3-0.4,0.2-0.7c0.3,0.2,0.3,0.5,0.2,0.8c-0.1,0.3-0.4,0.4-0.7,0.4s-0.5-0.2-0.6-0.5C10.8,18.6,11,18.7,11.3,18.5L11.3,18.5z M14.8,11.1c-0.2,0.4-0.6,0.7-1,0.7c-0.4,0-0.8-0.3-0.9-0.8c0.1,0,0.2,0.1,0.3,0.1c0.3,0.1,0.7-0.1,0.7-0.4c0.1-0.3-0.1-0.6-0.4-0.7c-0.1,0-0.1,0-0.2-0.1c0.4-0.3,0.9-0.2,1.2,0C14.8,10.2,14.9,10.6,14.8,11.1z"/>
</svg>