<svg id="Layer_1" data-name="Layer 1" xmlns="http://www.w3.org/2000/svg" width="32" height="44" viewBox="0 0 32 44"><defs><style>.cls-1{fill:#606060;}.cls-2{fill:#fff;}</style></defs><title>luggage-storage</title><path class="cls-1" d="M16.4,0H16A16,16,0,0,0,0,15.92C0,26.83,14.3,42.85,14.9,43.55a1.45,1.45,0,0,0,2,0l0.05,0c0.6-.7,15-16.72,15-27.63A15.76,15.76,0,0,0,16.4,0h0ZM16,27.83a12,12,0,1,1,12-12A12,12,0,0,1,16,27.83Z"/><circle class="cls-2" cx="16" cy="15.8" r="12"/><path class="cls-1" d="M19.9,9.2H18.8V8a0.65,0.65,0,0,0,.6-0.6,0.65,0.65,0,0,0-.6-0.6H13.2a0.65,0.65,0,0,0-.6.6,0.65,0.65,0,0,0,.6.6V9.1H12.1a2.22,2.22,0,0,0-2.2,2.2V21.4a2.22,2.22,0,0,0,2.2,2.2h0.3v0.6a0.6,0.6,0,1,0,1.2,0h0V23.6h5.1v0.6a0.6,0.6,0,0,0,1.2,0V23.6h0a2.22,2.22,0,0,0,2.2-2.2v-10a2.1,2.1,0,0,0-2-2.2H19.9ZM14.3,8h3.4V9.1H14.3V8ZM13.8,20.7a0.6,0.6,0,1,1-1.2,0h0V12.3a0.6,0.6,0,1,1,1.2,0h0v8.4Zm2.8,0a0.6,0.6,0,1,1-1.2,0h0V12.3a0.6,0.6,0,1,1,1.2,0h0v8.4Zm1.7,0V12.3a0.6,0.6,0,0,1,1.2,0v8.4a0.65,0.65,0,0,1-.6.6,0.58,0.58,0,0,1-.6-0.56S18.3,20.71,18.3,20.7Z"/></svg>