<svg width="32px" height="44px" id="Layer_1" data-name="Layer 1" xmlns="http://www.w3.org/2000/svg" viewBox="0 0 32 44"><defs><style>.cls-1{fill:#e20e0e;}.cls-2{fill:#fff;}</style></defs><title>restaurants</title><path class="cls-1" d="M16,0A16,16,0,0,0,0,15.92C0,26.83,14.3,42.85,14.9,43.55a1.45,1.45,0,0,0,2.1,0c.7-.7,15-16.72,15-27.63A16,16,0,0,0,16,0Zm0,24a8,8,0,1,1,8.1-8A8.12,8.12,0,0,1,16,24Z"/><ellipse class="cls-2" cx="16" cy="15.82" rx="12" ry="12.01"/><path class="cls-1" d="M14.9,8.41a.76.76,0,0,0-.4.2.52.52,0,0,0-.2.4v3.5a.76.76,0,0,1-.2.4.37.37,0,0,1-.3.1.76.76,0,0,1-.4-.2.52.52,0,0,1-.2-.4V8.91a.76.76,0,0,0-.2-.4.52.52,0,0,0-.4-.2.76.76,0,0,0-.4.2.52.52,0,0,0-.2.4v3.5a.76.76,0,0,1-.2.4.52.52,0,0,1-.4.2.76.76,0,0,1-.4-.2.52.52,0,0,1-.2-.4V8.91a.76.76,0,0,0-.2-.4.5.5,0,0,0-.8,0,.52.52,0,0,0-.2.4v5.51a1.4,1.4,0,0,0,.3.9,1.56,1.56,0,0,0,.8.6v6.61a1,1,0,0,0,1.1,1.1h1.1a1,1,0,0,0,1.1-1.1V15.92a1.56,1.56,0,0,0,.8-.6,1.61,1.61,0,0,0,.3-.9V8.91a.76.76,0,0,0-.2-.4C15.1,8.51,15,8.41,14.9,8.41Z"/><path class="cls-1" d="M21.8,8.61a.52.52,0,0,0-.4-.2H19.2a2.73,2.73,0,0,0-2.7,2.7v6.81c0,.1,0,.1.1.2s.1.1.2.1h1.9v4.41a1,1,0,0,0,1.1,1.1h1.1a1,1,0,0,0,1.1-1.1V9C21.9,8.81,21.9,8.71,21.8,8.61Z"/></svg>