<svg width="32px" height="44px" id="Layer_1" data-name="Layer 1" xmlns="http://www.w3.org/2000/svg" viewBox="0 0 32 44"><defs><style>.cls-1{fill:#896da7;}.cls-2{fill:#fff;}</style></defs><title>sightseeing</title><path class="cls-1" d="M16.05,0A16.06,16.06,0,0,0,0,15.92C0,26.83,14.34,42.85,14.94,43.55a1.46,1.46,0,0,0,2.11,0c.6-.7,15-16.72,15-27.63A15.79,15.79,0,0,0,16.05,0Zm0,24a8.13,8.13,0,0,1-8.13-8,8.13,8.13,0,1,1,8.13,8Z"/><ellipse class="cls-2" cx="16.05" cy="15.82" rx="12.04" ry="12.01"/><path class="cls-1" d="M16.05,13.32a3.3,3.3,0,1,0,3.31,3.3A3.21,3.21,0,0,0,16.05,13.32Z"/><path class="cls-1" d="M22.47,10.41H20.86l-.2-.9a2,2,0,0,0-2-1.6h-5a2.15,2.15,0,0,0-2,1.6l-.2.9H9.83a1.76,1.76,0,0,0-1.71,1.7v9.51a1.76,1.76,0,0,0,1.71,1.71H22.47a1.75,1.75,0,0,0,1.7-1.71V12.11A1.69,1.69,0,0,0,22.47,10.41ZM16.05,20.82a4.21,4.21,0,1,1,4.21-4.2A4.16,4.16,0,0,1,16.05,20.82Zm5.51-7.1a.37.37,0,0,1-.3.1c-.1,0-.2-.1-.3-.1s-.1-.2-.1-.3.1-.2.1-.31.2-.1.3-.1a.37.37,0,0,1,.3.1.4.4,0,0,1,.1.31C21.66,13.52,21.56,13.62,21.56,13.72Z"/></svg>