<svg version="1.1" id="Layer_1" xmlns="http://www.w3.org/2000/svg" xmlns:xlink="http://www.w3.org/1999/xlink" x="0px" y="0px" width="32px" height="44px" viewBox="0 0 32 44" style="enable-background:new 0 0 32 44;" xml:space="preserve">
<style type="text/css">.st0{fill:#00AF9A;}.st1{fill:#FFFFFF;}</style>
<title>swimming</title>
<path class="st0" d="M16,0C7.2,0,0.1,7.1,0,15.9c0,10.9,14.3,26.9,14.9,27.6c0.6,0.6,1.5,0.6,2.1,0l0,0c0.6-0.7,15-16.7,15-27.6C32.1,7.2,25.1,0.1,16.4,0C16.3,0,16.2,0,16,0z M16,24c-4.4,0-8.1-3.6-8.1-8c-0.1-4.5,3.5-8.2,8-8.3s8.2,3.5,8.3,8c0.1,4.5-3.5,8.2-8,8.3C16.1,24,16.1,24,16,24z"/>
<ellipse class="st1" cx="16" cy="15.8" rx="12" ry="12"/>
<g>
<path class="st0" d="M12.6,15.8c0,0,0.1,0,0.1,0.1c0.1,0,0.2,0,0.4,0c0.5,0,0.9-0.1,1.4-0.3c0.3-0.1,0.6-0.2,1-0.3c0.2-0.2,0.3-0.3,0.4-0.6c0.6-1.2,0.2-2.7-1-3.3c-1.2-0.6-2.7-0.2-3.3,1C10.9,13.7,11.4,15.2,12.6,15.8z"/>
<path class="st0" d="M16.2,15.2c0.7,0,1.2,0.2,1.7,0.3c0.4,0.1,0.9,0.3,1.4,0.3c0.5,0,0.9-0.1,1.4-0.3c0.5-0.2,1-0.3,1.7-0.3c0,0,0.1,0,0.1,0l-1.2-0.6l-1.6-1.3l1-1.4l2.6,1.7c0,0,0,0,0,0c0.5,0.3,1.1,0.2,1.4-0.3c0.3-0.5,0.2-1.1-0.3-1.4c0,0,0,0,0,0L21,9.8l0,0c-0.5-0.3-1.1-0.2-1.4,0.3c0,0,0,0,0,0L16,15.3C16.1,15.3,16.1,15.2,16.2,15.2z"/>
<path class="st0" d="M6,17.2l0-1c0.6,0,1.1,0.2,1.5,0.3c0.4,0.1,0.7,0.2,1.2,0.2c0.4,0,0.8-0.1,1.2-0.2c0.4-0.1,0.9-0.3,1.5-0.3c0.6,0,1.1,0.2,1.5,0.3c0.4,0.1,0.7,0.2,1.2,0.2c0.4,0,0.8-0.1,1.2-0.2c0.4-0.1,0.9-0.3,1.5-0.3c0.6,0,1.1,0.2,1.5,0.3c0.4,0.1,0.7,0.2,1.2,0.2c0.4,0,0.8-0.1,1.2-0.2c0.4-0.1,0.9-0.3,1.5-0.3c0.6,0,1.1,0.2,1.5,0.3c0.4,0.1,0.7,0.2,1.2,0.2c0.4,0,0.8-0.1,1.2-0.2l0.3,1c-0.4,0.1-0.9,0.3-1.5,0.3c-0.6,0-1.1-0.2-1.5-0.3c-0.4-0.1-0.7-0.2-1.2-0.2c-0.4,0-0.8,0.1-1.2,0.2c-0.4,0.1-0.9,0.3-1.5,0.3c-0.6,0-1.1-0.2-1.5-0.3c-0.4-0.1-0.7-0.2-1.2-0.2c-0.4,0-0.8,0.1-1.2,0.2c-0.4,0.1-0.9,0.3-1.5,0.3c-0.6,0-1.1-0.2-1.5-0.3c-0.4-0.1-0.7-0.2-1.2-0.2c-0.4,0-0.8,0.1-1.2,0.2c-0.4,0.1-0.9,0.3-1.5,0.3c-0.6,0-1.1-0.2-1.5-0.3C6.8,17.3,6.4,17.2,6,17.2z"/>
<path class="st0" d="M6,19.3l0-1c0.6,0,1.1,0.2,1.5,0.3c0.4,0.1,0.7,0.2,1.2,0.2c0.4,0,0.8-0.1,1.2-0.2c0.4-0.1,0.9-0.3,1.5-0.3c0.6,0,1.1,0.2,1.5,0.3c0.4,0.1,0.7,0.2,1.2,0.2c0.4,0,0.8-0.1,1.2-0.2c0.4-0.1,0.9-0.3,1.5-0.3c0.6,0,1.1,0.2,1.5,0.3c0.4,0.1,0.7,0.2,1.2,0.2c0.4,0,0.8-0.1,1.2-0.2c0.4-0.1,0.9-0.3,1.5-0.3c0.6,0,1.1,0.2,1.5,0.3c0.4,0.1,0.7,0.2,1.2,0.2c0.4,0,0.8-0.1,1.2-0.2l0.3,1c-0.4,0.1-0.9,0.3-1.5,0.3c-0.6,0-1.1-0.2-1.5-0.3c-0.4-0.1-0.7-0.2-1.2-0.2c-0.4,0-0.8,0.1-1.2,0.2c-0.4,0.1-0.9,0.3-1.5,0.3c-0.6,0-1.1-0.2-1.5-0.3c-0.4-0.1-0.7-0.2-1.2-0.2c-0.4,0-0.8,0.1-1.2,0.2c-0.4,0.1-0.9,0.3-1.5,0.3c-0.6,0-1.1-0.2-1.5-0.3c-0.4-0.1-0.7-0.2-1.2-0.2c-0.4,0-0.8,0.1-1.2,0.2c-0.4,0.1-0.9,0.3-1.5,0.3c-0.6,0-1.1-0.2-1.5-0.3C6.8,19.4,6.4,19.3,6,19.3z"/>
</g>
</svg>