<svg width="32px" height="44px" id="Layer_1" data-name="Layer 1" xmlns="http://www.w3.org/2000/svg" viewBox="0 0 32 44"><defs><style>.cls-1{fill:#f5b049;}.cls-2{fill:#fff;}</style></defs><title>taxi</title><path class="cls-1" d="M16.05,0A16.06,16.06,0,0,0,0,15.92C0,26.83,14.34,42.85,14.94,43.55a1.46,1.46,0,0,0,2.11,0c.6-.7,15-16.72,15-27.63A15.79,15.79,0,0,0,16.05,0Zm0,24a8.13,8.13,0,0,1-8.13-8,8.13,8.13,0,1,1,8.13,8Z"/><ellipse class="cls-2" cx="16.05" cy="15.82" rx="12.04" ry="12.01"/><path class="cls-1" d="M19.06,21.22v1.61a.47.47,0,0,0,.5.5h2.91a.47.47,0,0,0,.5-.5V21.22Z"/><path class="cls-1" d="M9.13,21.22v1.61a.47.47,0,0,0,.5.5h2.91a.47.47,0,0,0,.5-.5V21.22Z"/><path class="cls-1" d="M23.37,14.52h-.7l-1.31-3.61c-.1-.2-.2-.3-.4-.3H19V8.11a.47.47,0,0,0-.5-.5H13.54a.47.47,0,0,0-.5.5v2.5H11c-.2,0-.4.1-.4.3l-1.4,3.61h-.7A.48.48,0,0,0,8,15v4.9a.48.48,0,0,0,.51.5H23.17a.47.47,0,0,0,.5-.5V15C23.87,14.72,23.57,14.52,23.37,14.52Zm-11,3.2a.5.5,0,0,1-.6,0,.46.46,0,0,1,0-.6.43.43,0,0,1,.6.6Zm7.92,0a.5.5,0,1,1,.1-.3A.37.37,0,0,1,20.26,17.72Zm-10-3.2,1.1-3h9.13l1.1,3Z"/></svg>