<svg width="32px" height="44px" id="Layer_1" data-name="Layer 1" xmlns="http://www.w3.org/2000/svg" viewBox="0 0 32 44"><defs><style>.cls-1{fill:#0b3c5d;}.cls-2{fill:#fff;}</style></defs><title>train</title><path class="cls-1" d="M16,0A16,16,0,0,0,0,15.92C0,26.83,14.3,42.85,14.9,43.55a1.45,1.45,0,0,0,2.1,0c.7-.7,15-16.72,15-27.63A15.91,15.91,0,0,0,16,0Zm0,24a8,8,0,1,1,8.1-8A8.12,8.12,0,0,1,16,24Z"/><ellipse class="cls-2" cx="16" cy="15.82" rx="12" ry="12.01"/><rect class="cls-1" x="14.6" y="13.82" width="1.6" height="1"/><rect class="cls-1" x="10.1" y="13.82" width="1.6" height="1"/><path class="cls-1" d="M20.2,15.92a1.9,1.9,0,0,1-1.7-2V10.71h-.8c0-.1,0-.1-.1-.2l-.5-.9h0a.61.61,0,0,0,0-1.2H14.7a.61.61,0,0,0,0,1.2h1.2c0,.1,0,.1.1.2l.5.9H9a1.69,1.69,0,0,0-1.6,1.8v4.21H21.5a.61.61,0,0,1,0,1.2H7.4v.6a1.69,1.69,0,0,0,1.5,1.8l.6.9H7.9a.62.62,0,0,0,0,1.21H24a.62.62,0,0,0,0-1.21H21.4l-.6-.9h.9A2.61,2.61,0,0,0,23.9,19a3.4,3.4,0,0,0,.4-2.8l-.1-.3Zm-7.5-.6a.56.56,0,0,1-.5.6H9.6a.56.56,0,0,1-.5-.6v-2.1a.56.56,0,0,1,.5-.61h2.6a.56.56,0,0,1,.5.61Zm4.6,0a.56.56,0,0,1-.5.6H14.2a.56.56,0,0,1-.5-.6v-2.1a.56.56,0,0,1,.5-.61h2.6a.56.56,0,0,1,.5.61Zm-1.2,5.9-.6-.9H17l.6.9Zm-2.6,0-.6-.9h1.4l.6.9Zm-1.9-.9.6.9H10.8l-.6-.9Zm7.3.9-.6-.9h1.4l.6.9Zm4.7-3.3h-.3a.61.61,0,0,1,0-1.2h.3a.61.61,0,0,1,0,1.2Z"/><path class="cls-1" d="M19.5,14a.71.71,0,0,0,.7.8h3.9L23.6,13a2.94,2.94,0,0,0-1-1.6,2.72,2.72,0,0,0-1.7-.6H19.5Z"/></svg>