<svg width="32px" height="44px" id="Layer_1" data-name="Layer 1" xmlns="http://www.w3.org/2000/svg" viewBox="0 0 32 44"><defs><style>.cls-1{fill:#541d61;}.cls-2{fill:#fff;}</style></defs><title>vacation_rental</title><path class="cls-1" d="M16,0A16,16,0,0,0,0,15.92C0,26.83,14.3,42.85,14.9,43.55a1.45,1.45,0,0,0,2.1,0c.7-.7,15-16.72,15-27.63A16,16,0,0,0,16,0Zm0,24a8,8,0,1,1,8.1-8A8.12,8.12,0,0,1,16,24Z"/><ellipse class="cls-2" cx="16" cy="15.82" rx="12" ry="12.01"/><path class="cls-1" d="M23.6,13.72h0L17.1,7.21a1.28,1.28,0,0,0-1-.4,1.53,1.53,0,0,0-1,.4L8.6,13.72h0a1.45,1.45,0,0,0,0,2.1,1.28,1.28,0,0,0,1,.4h.3V21a1.69,1.69,0,0,0,1.7,1.71H14a.47.47,0,0,0,.5-.5V18.42a.86.86,0,0,1,.8-.8h1.5a.86.86,0,0,1,.8.8v3.81a.47.47,0,0,0,.5.5h2.6A1.69,1.69,0,0,0,22.4,21v-4.8h.2a1.53,1.53,0,0,0,1-.4A1.45,1.45,0,0,0,23.6,13.72Z"/></svg>